<svg width="18" height="19" viewBox="0 0 18 19" fill="none" xmlns="http://www.w3.org/2000/svg">
<path d="M9.75 5.75V9.56434L12.3107 12.125L11.25 13.1857L8.25 10.1857V5.75H9.75Z" fill="white" fill-opacity="0.25"/>
<path fill-rule="evenodd" clip-rule="evenodd" d="M0.75 9.5C0.75 4.94365 4.44365 1.25 9 1.25C13.5563 1.25 17.25 4.94365 17.25 9.5C17.25 14.0563 13.5563 17.75 9 17.75C4.44365 17.75 0.75 14.0563 0.75 9.5ZM9 2.75C5.27208 2.75 2.25 5.77208 2.25 9.5C2.25 13.2279 5.27208 16.25 9 16.25C12.7279 16.25 15.75 13.2279 15.75 9.5C15.75 5.77208 12.7279 2.75 9 2.75Z" fill="white" fill-opacity="0.25"/>
</svg>
