<svg width="18" height="19" viewBox="0 0 18 19" fill="none" xmlns="http://www.w3.org/2000/svg">
<path fill-rule="evenodd" clip-rule="evenodd" d="M3 5C3 3.34315 4.34315 2 6 2C7.65685 2 9 3.34315 9 5C9 6.65685 7.65685 8 6 8C4.34315 8 3 6.65685 3 5ZM6 3.5C5.17157 3.5 4.5 4.17157 4.5 5C4.5 5.82843 5.17157 6.5 6 6.5C6.82843 6.5 7.5 5.82843 7.5 5C7.5 4.17157 6.82843 3.5 6 3.5Z" fill="white" fill-opacity="0.25"/>
<path fill-rule="evenodd" clip-rule="evenodd" d="M10.5 6.5C10.5 5.25736 11.5074 4.25 12.75 4.25C13.9926 4.25 15 5.25736 15 6.5C15 7.74264 13.9926 8.75 12.75 8.75C11.5074 8.75 10.5 7.74264 10.5 6.5ZM12.75 5.75C12.3358 5.75 12 6.08579 12 6.5C12 6.91421 12.3358 7.25 12.75 7.25C13.1642 7.25 13.5 6.91421 13.5 6.5C13.5 6.08579 13.1642 5.75 12.75 5.75Z" fill="white" fill-opacity="0.25"/>
<path fill-rule="evenodd" clip-rule="evenodd" d="M0.75 14C0.75 11.1005 3.10051 8.75 6 8.75C7.55738 8.75 8.95587 9.42846 9.9166 10.5039C10.6898 9.87671 11.6761 9.5 12.75 9.5C15.2353 9.5 17.25 11.5147 17.25 14V17H0.75V14ZM10.7508 11.7631C11.071 12.4422 11.25 13.2009 11.25 14V15.5H15.75V14C15.75 12.3431 14.4069 11 12.75 11C11.9822 11 11.282 11.2879 10.7508 11.7631ZM9.75 15.5V14C9.75 13.2784 9.54694 12.6066 9.1952 12.0358C8.53381 10.9627 7.34981 10.25 6 10.25C3.92893 10.25 2.25 11.9289 2.25 14V15.5H9.75Z" fill="white" fill-opacity="0.25"/>
</svg>
