<svg width="18" height="19" viewBox="0 0 18 19" fill="none" xmlns="http://www.w3.org/2000/svg">
<path fill-rule="evenodd" clip-rule="evenodd" d="M5.25 5C5.25 2.92893 6.92893 1.25 9 1.25C11.0711 1.25 12.75 2.92893 12.75 5C12.75 7.07107 11.0711 8.75 9 8.75C6.92893 8.75 5.25 7.07107 5.25 5ZM9 2.75C7.75736 2.75 6.75 3.75736 6.75 5C6.75 6.24264 7.75736 7.25 9 7.25C10.2426 7.25 11.25 6.24264 11.25 5C11.25 3.75736 10.2426 2.75 9 2.75Z" fill="white" fill-opacity="0.25"/>
<path fill-rule="evenodd" clip-rule="evenodd" d="M1.5 17C1.5 12.8579 4.85786 9.5 9 9.5C13.1421 9.5 16.5 12.8579 16.5 17V17.75H1.5V17ZM3.04642 16.25H14.9536C14.5845 13.2903 12.0597 11 9 11C5.94029 11 3.41549 13.2903 3.04642 16.25Z" fill="white" fill-opacity="0.25"/>
</svg>
